<svg xmlns="http://www.w3.org/2000/svg" version="1.1" xmlns:xlink="http://www.w3.org/1999/xlink" xmlns:svgjs="http://svgjs.com/svgjs" width="1440" height="560" preserveAspectRatio="none" viewBox="0 0 1440 560">
    <g mask="url(&quot;#SvgjsMask1009&quot;)" fill="none">
        <rect width="1440" height="560" x="0" y="0" fill="rgba(255, 255, 255, 1)"></rect>
        <path d="M1536 560L0 560 L0 365.61Q28.94 322.55, 72 351.48Q90.47 297.95, 144 316.41Q215.99 268.4, 264 340.39Q293.43 297.81, 336 327.24Q360.72 279.96, 408 304.67Q433.25 257.92, 480 283.16Q571.16 254.33, 600 345.49Q651.13 276.62, 720 327.75Q742.73 278.48, 792 301.21Q819.89 257.11, 864 285Q945.66 246.66, 984 328.33Q1032.13 256.46, 1104 304.59Q1152.82 233.41, 1224 282.23Q1284.41 270.64, 1296 331.05Q1376.82 291.87, 1416 372.68Q1461.23 297.91, 1536 343.14z" fill="rgba(6, 40, 61, 1)"></path>
        <path d="M1488 560L0 560 L0 378.06Q89.97 348.03, 120 438Q160.18 358.18, 240 398.35Q254.65 341, 312 355.65Q383.98 307.63, 432 379.6Q477.96 353.56, 504 399.53Q518.1 341.63, 576 355.73Q617.85 325.58, 648 367.42Q735.31 334.73, 768 422.04Q810.96 345, 888 387.95Q914.62 342.56, 960 369.18Q1017.42 354.61, 1032 412.03Q1055.74 363.76, 1104 387.5Q1153.67 317.18, 1224 366.85Q1285.61 356.46, 1296 418.06Q1341.43 343.5, 1416 388.93Q1458.83 359.76, 1488 402.59z" fill="rgba(19, 99, 223, 1)"></path>
        <path d="M1536 560L0 560 L0 432.83Q74.75 387.57, 120 462.32Q197.07 419.39, 240 496.46Q253.41 437.87, 312 451.28Q339.06 406.33, 384 433.39Q467.71 397.1, 504 480.8Q530.46 435.26, 576 461.73Q606.09 419.81, 648 449.9Q675.33 405.23, 720 432.56Q810.33 402.89, 840 493.22Q851.73 432.95, 912 444.67Q981.71 394.38, 1032 464.1Q1077.47 437.57, 1104 483.04Q1141.28 400.31, 1224 437.59Q1274.96 416.55, 1296 467.51Q1347.11 398.62, 1416 449.73Q1469.24 382.98, 1536 436.22z" fill="rgba(71, 181, 255, 1)"></path>
        <path d="M1536 560L0 560 L0 564Q12.65 504.65, 72 517.31Q115.41 488.72, 144 532.13Q163.66 479.79, 216 499.46Q262.68 474.14, 288 520.82Q330.05 490.87, 360 532.92Q442.52 495.44, 480 577.96Q505.66 483.62, 600 509.28Q648.22 485.5, 672 533.71Q701.75 491.47, 744 521.22Q773.69 478.91, 816 508.6Q873.77 494.38, 888 552.15Q909.66 501.81, 960 523.46Q1002.18 493.64, 1032 535.83Q1092.97 524.8, 1104 585.76Q1153.85 515.61, 1224 565.46Q1247.31 468.76, 1344 492.07Q1386.97 463.04, 1416 506.01Q1499.06 469.07, 1536 552.13z" fill="rgba(223, 246, 255, 1)"></path>
    </g>
    <defs>
        <mask id="SvgjsMask1009">
            <rect width="1440" height="560" fill="#ffffff"></rect>
        </mask>
    </defs>
</svg>